<svg width="40" height="40" viewBox="0 0 40 40" fill="none" xmlns="http://www.w3.org/2000/svg">
<g id="vuesax/bold/dribbble">
<g id="vuesax/bold/dribbble_2">
<g id="dribbble">
<path id="Vector" fill-rule="evenodd" clip-rule="evenodd" d="M26.4666 34.8667C26.5166 35.1334 26.3665 35.4167 26.1165 35.5167C24.2332 36.2667 22.1666 36.6667 20.0333 36.6667C16.3499 36.6667 12.9499 35.4833 10.1999 33.45C9.96657 33.2833 9.89996 32.95 10.05 32.7C10.9666 31.0667 14.5499 25.8167 22.4665 22.8834C22.7665 22.7667 23.0999 22.9167 23.1999 23.2167C25.1832 28.5333 26.1166 33.0334 26.4666 34.8667Z" fill="#F95A37"/>
<path id="Vector_2" fill-rule="evenodd" clip-rule="evenodd" d="M36.3667 23.15C35.6 27.25 33.3 30.8167 30.0833 33.25C29.7333 33.5167 29.2333 33.3167 29.15 32.9C28.8 31.1 27.95 27.2167 26.3166 22.6C26.2 22.25 26.4334 21.8667 26.8 21.8167C30.95 21.3167 34.5833 22.1167 35.95 22.4833C36.2333 22.5833 36.4167 22.8667 36.3667 23.15Z" fill="#F95A37"/>
<path id="Vector_3" fill-rule="evenodd" clip-rule="evenodd" d="M35.9834 19.7C34.2834 19.4 29.9501 18.7666 25.5167 19.25C25.2501 19.2833 25.0167 19.1333 24.9001 18.8833C24.8334 18.7333 24.7834 18.5833 24.7168 18.4333C24.4501 17.8166 24.1668 17.1833 23.8834 16.5666C23.7334 16.2666 23.8834 15.9 24.1834 15.7666C28.8501 13.75 31.45 11.15 32.4667 9.98329C32.7167 9.69996 33.1501 9.71666 33.3835 10.0167C35.3001 12.5667 36.4834 15.6833 36.6667 19.05C36.6834 19.4666 36.3501 19.7667 35.9834 19.7Z" fill="#F95A37"/>
<path id="Vector_4" fill-rule="evenodd" clip-rule="evenodd" d="M30.7334 7.98337C29.8667 9.03337 27.4334 11.5333 22.8167 13.3667C22.5501 13.4833 22.2334 13.3667 22.0834 13.1C19.95 9.23333 17.6834 5.98334 16.6334 4.51667C16.3834 4.16667 16.5834 3.66669 17.0001 3.60003C17.9667 3.43336 18.9834 3.35004 20.0167 3.35004C24.0501 3.35004 27.7667 4.78335 30.6501 7.18335C30.9001 7.36668 30.9334 7.73337 30.7334 7.98337Z" fill="#F95A37"/>
<path id="Vector_5" fill-rule="evenodd" clip-rule="evenodd" d="M18.3667 14.7333C12.05 16.3167 6.46663 16.5333 4.43329 16.5667C4.04996 16.5667 3.76668 16.2 3.86668 15.8333C5.06668 11.1667 8.26665 7.26668 12.4833 5.11668C12.7333 4.98335 13.05 5.06665 13.2167 5.29999C14.0833 6.49999 16.4333 9.88335 18.7333 13.8667C18.9167 14.2 18.75 14.6333 18.3667 14.7333Z" fill="#F95A37"/>
<path id="Vector_6" fill-rule="evenodd" clip-rule="evenodd" d="M21.5333 19.3333C21.6833 19.65 21.5 20.0333 21.1666 20.15C13.7833 22.5333 9.36664 28.45 8.03331 30.4833C7.81664 30.8167 7.34998 30.8333 7.09998 30.5333C4.76664 27.6667 3.34998 24.3833 3.34998 20.4V20.1C3.34998 19.7666 3.61662 19.5 3.94995 19.5166C6.04995 19.6 12.9 19.3166 20.0166 17.2666C20.2833 17.1833 20.5833 17.3167 20.6999 17.5667C20.9833 18.15 21.2666 18.7333 21.5333 19.3333Z" fill="#F95A37"/>
</g>
</g>
</g>
</svg>
